<?xml version="1.0" encoding="UTF-8"?>
<svg id="Layer_2" data-name="Layer 2" xmlns="http://www.w3.org/2000/svg" viewBox="0 0 292.52 292.52">
  <defs>
    <style>
      .cls-1 {
        fill: #2fac66;
      }

      .cls-2 {
        fill: #fff;
      }
    </style>
  </defs>
  <g id="Layer_1-2" data-name="Layer 1">
    <g>
      <rect class="cls-1" x="73.1" y="0" width="146.31" height="292.52" rx="73.15" ry="73.15" transform="translate(0 292.52) rotate(-90)"/>
      <rect class="cls-1" x="73.1" y="0" width="146.31" height="292.52" rx="73.15" ry="73.15" transform="translate(292.52 292.52) rotate(180)"/>
      <circle class="cls-1" cx="241.06" cy="51.24" r="16.1"/>
      <path class="cls-2" d="M245.64,51.17c.52-.68.78-1.81.78-3.4,0-1.22-.12-2.18-.35-2.89-.23-.71-.62-1.21-1.17-1.51-.55-.3-1.3-.44-2.27-.44h-5.66v14.62h1.87v-5.36h3.74l2.53,5.36h2.03l-2.71-5.57c.51-.17.91-.43,1.2-.8ZM238.85,44.47h3.86c.67,0,1.13.07,1.38.21.25.14.37.4.37.77v4.21c0,.37-.12.63-.37.77-.25.14-.71.21-1.38.21h-3.86v-6.17Z"/>
    </g>
    <g>
      <path class="cls-2" d="M88.45,156.21c2.28-.61,4.39-1.56,6.35-2.84,1.96-1.29,3.69-2.98,5.18-5.09.24-.34.46-.71.69-1.07.31.04.64.06.99.06h7.33v-10.05h-5.75c-1.05-2.49-2.38-4.51-3.98-6.07-1.6-1.56-3.59-2.72-5.97-3.48-2.38-.76-5.32-1.14-8.82-1.14-1.31,0-2.7.05-4.17.16-1.48.11-3.03.26-4.68.47l1.33,9.86c1.43-.21,2.78-.34,4.05-.38,1.26-.04,2.44-.06,3.54-.06,2.32,0,4.25.24,5.78.73,1.54.49,2.8,1.25,3.79,2.31.11.12.21.26.32.39-.24.47-.48.94-.76,1.38-.7,1.1-1.55,2.08-2.56,2.94-1.01.86-2.27,1.55-3.76,2.05-1.5.51-3.23.76-5.22.76h-26.61c-1.77,0-3.53-.14-5.28-.41-1.75-.27-3.7-.68-5.85-1.23l-1.33,9.55c2.28.67,4.7,1.19,7.27,1.55,2.57.36,5.02.54,7.33.54h.76v4.74c0,.88-.33,1.57-.98,2.05-.65.48-1.74.82-3.26,1.01-1.52.19-3.6.28-6.26.28h-17.76c-.25-.93-.42-1.92-.51-2.97-.08-1.05-.13-2.26-.13-3.6,0-1.64.18-3.29.54-4.93.36-1.64.81-3.33,1.36-5.06l-8.72-1.45c-.42,1.35-.8,2.76-1.14,4.24-.34,1.48-.58,2.97-.73,4.49-.15,1.52-.22,3.01-.22,4.49,0,2.87.37,5.27,1.11,7.21.74,1.94,1.96,3.46,3.67,4.55,1.71,1.1,4.06,1.87,7.05,2.34,2.99.46,6.74.7,11.25.7s8.54-.25,11.6-.76c3.05-.51,5.47-1.33,7.24-2.47,1.77-1.14,3.01-2.67,3.73-4.58.72-1.92,1.07-4.27,1.07-7.05v-3.22h13.91c2.53,0,4.93-.31,7.21-.92Z"/>
      <path class="cls-2" d="M123.97,155.8v-28.38h-8.85v28.38c0,2.23-.17,4.02-.51,5.37-.34,1.35-.95,2.43-1.83,3.26-.88.82-2.15,1.61-3.79,2.37l3.29,7.97c2.82-1.22,5.1-2.66,6.83-4.3,1.73-1.64,2.97-3.66,3.73-6.04.76-2.38,1.14-5.26,1.14-8.63Z"/>
      <polygon class="cls-2" points="152.83 147.14 145.75 147.14 143.22 147.14 139.62 147.14 139.62 117.3 130.71 117.3 130.71 157.13 143.22 157.13 145.75 157.13 161.75 157.13 161.75 127.42 152.83 127.42 152.83 147.14"/>
      <path class="cls-2" d="M169.19,155.8c0,2.23-.17,4.02-.51,5.37-.34,1.35-.95,2.43-1.83,3.26-.89.82-2.15,1.61-3.79,2.37l3.29,7.97c2.82-1.22,5.1-2.66,6.83-4.3,1.73-1.64,2.97-3.66,3.73-6.04.76-2.38,1.14-5.26,1.14-8.63v-28.38h-8.85v28.38Z"/>
      <rect class="cls-2" x="184.16" y="117.3" width="8.91" height="39.83"/>
      <path class="cls-2" d="M266.15,137.22c-1.05-2.49-2.38-4.51-3.98-6.07-1.6-1.56-3.59-2.72-5.97-3.48-2.38-.76-5.32-1.14-8.82-1.14-1.31,0-2.7.05-4.17.16-1.48.11-3.03.26-4.68.47l1.33,9.86c1.43-.21,2.78-.34,4.05-.38,1.26-.04,2.44-.06,3.54-.06,2.32,0,4.25.24,5.78.73,1.54.49,2.8,1.25,3.79,2.31.11.12.23.25.34.38-.24.48-.49.94-.78,1.39-.7,1.1-1.55,2.08-2.56,2.94-1.01.86-2.27,1.55-3.76,2.05-1.5.51-3.24.76-5.22.76h-15.42v-18.21c-2.19-.88-4.42-1.51-6.67-1.86-2.25-.36-4.94-.54-8.06-.54-2.78,0-5.17.28-7.17.85-2,.57-3.61,1.44-4.84,2.62-1.22,1.18-2.14,2.72-2.75,4.61-.61,1.9-.92,4.17-.92,6.83,0,2.82.25,5.24.76,7.24.51,2,1.25,3.63,2.24,4.87.99,1.24,2.31,2.15,3.95,2.72,1.64.57,3.58.85,5.82.85h6.23c-.17.37-.35.74-.54,1.11-.97,1.87-2.13,3.67-3.48,5.37-1.35,1.71-2.82,3.23-4.43,4.58l5.94,6.57c2.06-1.81,3.94-3.82,5.63-6.04,1.69-2.21,3.15-4.52,4.39-6.92.8-1.54,1.47-3.1,2.04-4.68h16.39c2.53,0,4.93-.31,7.21-.92,2.28-.61,4.39-1.56,6.35-2.84,1.96-1.29,3.69-2.98,5.18-5.09.24-.34.48-.7.7-1.07.31.04.63.05.97.05h7.33v-10.05h-5.75ZM220.7,144.55c0,.97-.19,1.64-.57,2.02-.38.38-1.05.57-2.02.57h-9.42v-7.9c0-1.05.25-1.76.76-2.12.51-.36,1.43-.54,2.78-.54h8.47v7.97Z"/>
      <polygon class="cls-2" points="85.38 169.9 97.87 169.9 97.87 161.21 76.69 161.21 76.69 162.79 76.69 169.9 76.69 175.21 85.38 175.21 85.38 169.9"/>
      <rect class="cls-2" x="141.88" y="162.77" width="8.7" height="8.7"/>
      <rect class="cls-2" x="229" y="117.3" width="8.7" height="8.7"/>
    </g>
    <g>
      <path class="cls-2" d="M106.66,198.06h-1.48l-1.09,2.2c-.16.33-.32.68-.46,1.06-.15.38-.22.77-.22,1.17h-2.38v-4.44h-1.31v10.2h1.31v-4.71h2.38c0,.4.08.79.23,1.17.15.38.3.73.46,1.06l1.17,2.48h1.48l-2.55-5.24,2.46-4.96Z"/>
      <polygon class="cls-2" points="115.57 202.68 110.97 202.68 110.97 198.06 109.67 198.06 109.67 208.25 110.97 208.25 110.97 203.75 115.57 203.75 115.57 208.25 116.88 208.25 116.88 198.06 115.57 198.06 115.57 202.68"/>
      <path class="cls-2" d="M122.35,198.06l-3.1,10.2h1.31l.72-2.41h4.09l.72,2.41h1.31l-3.1-10.2h-1.94ZM121.6,204.76l1.65-5.53h.15l1.65,5.53h-3.45Z"/>
      <path class="cls-2" d="M135.87,203.81c.36-.47.55-1.26.55-2.37,0-.85-.08-1.52-.24-2.01-.16-.49-.43-.85-.82-1.05-.38-.21-.91-.31-1.58-.31h-3.95v10.2h1.31v-3.74h2.61l1.77,3.74h1.42l-1.89-3.89c.35-.12.64-.3.84-.56ZM131.13,199.13h2.69c.47,0,.79.05.96.15.17.1.26.28.26.54v2.94c0,.26-.09.44-.26.54-.17.1-.5.15-.96.15h-2.69v-4.31Z"/>
      <path class="cls-2" d="M145.43,203.08v-.1c.35-.25.6-.56.74-.93.15-.37.22-.87.22-1.5,0-.86-.22-1.49-.65-1.89-.44-.4-1.11-.6-2.02-.6h-3.77v10.2h4.29c.86,0,1.52-.25,1.97-.74.46-.49.69-1.2.69-2.13,0-.58-.13-1.06-.38-1.44-.25-.39-.61-.67-1.09-.86ZM144.79,199.42c.2.27.3.75.3,1.44s-.1,1.14-.31,1.4-.58.39-1.11.39h-2.41v-3.64h2.43c.53,0,.9.13,1.1.4ZM145.27,206.84c-.23.3-.61.46-1.16.46h-2.86v-3.72h2.87c.54,0,.93.14,1.15.41.22.27.33.72.33,1.35,0,.7-.11,1.2-.34,1.5Z"/>
      <path class="cls-2" d="M152.51,198.06l-3.1,10.2h1.31l.72-2.41h4.09l.72,2.41h1.31l-3.1-10.2h-1.94ZM151.75,204.76l1.65-5.53h.15l1.65,5.53h-3.45Z"/>
      <path class="cls-2" d="M166.02,203.81c.36-.47.55-1.26.55-2.37,0-.85-.08-1.52-.24-2.01-.16-.49-.43-.85-.82-1.05-.38-.21-.91-.31-1.58-.31h-3.95v10.2h1.31v-3.74h2.61l1.77,3.74h1.42l-1.89-3.89c.35-.12.64-.3.84-.56ZM161.28,199.13h2.69c.47,0,.79.05.96.15.17.1.26.28.26.54v2.94c0,.26-.09.44-.26.54-.17.1-.5.15-.96.15h-2.69v-4.31Z"/>
      <path class="cls-2" d="M175.26,207.31c-.45.08-.91.11-1.38.11-.38,0-.75-.02-1.1-.07-.35-.04-.68-.11-.97-.2v-6.97c0-.55.15-.9.45-1.04.3-.14.77-.21,1.41-.21.18,0,.43.01.73.03.3.02.63.05.97.09.34.04.66.1.94.17l.16-1.09c-.21-.08-.45-.14-.73-.19-.28-.05-.57-.08-.85-.11-.28-.02-.53-.03-.75-.03-.77,0-1.4.08-1.88.24-.48.16-.86.44-1.13.83-.27.4-.45.94-.55,1.63-.1.69-.15,1.57-.15,2.65s.05,1.93.15,2.62c.1.69.28,1.23.54,1.63.26.4.63.68,1.09.84.47.16,1.07.24,1.81.24.57,0,1.06-.03,1.48-.1s.84-.17,1.24-.33l-.15-1.06c-.44.12-.88.22-1.33.29Z"/>
      <polygon class="cls-2" points="185.93 202.68 181.33 202.68 181.33 198.06 180.02 198.06 180.02 208.25 181.33 208.25 181.33 203.75 185.93 203.75 185.93 208.25 187.23 208.25 187.23 198.06 185.93 198.06 185.93 202.68"/>
      <rect class="cls-2" x="193.03" y="198.06" width="1.31" height="10.2"/>
    </g>
  </g>
</svg>