<?xml version="1.0" encoding="UTF-8"?>
<svg id="Layer_2" data-name="Layer 2" xmlns="http://www.w3.org/2000/svg" viewBox="0 0 249.73 87.99">
  <defs>
    <style>
      .cls-1 {
        fill: #b17f4a;
      }
    </style>
  </defs>
  <g id="Layer_1-2" data-name="Layer 1">
    <rect class="cls-1" x="91.35" y="-91.35" width="67.04" height="249.73" rx="33.52" ry="33.52" transform="translate(91.35 158.39) rotate(-90)"/>
    <g>
      <path d="M79.72,76.28h-1.66l-1.23,2.47c-.18.37-.36.76-.52,1.19-.16.43-.25.87-.25,1.32h-2.67v-4.98h-1.46v11.43h1.46v-5.29h2.67c0,.45.09.89.26,1.32.17.43.34.82.51,1.19l1.32,2.78h1.66l-2.85-5.87,2.76-5.56Z"/>
      <polygon points="89.71 81.46 84.56 81.46 84.56 76.28 83.09 76.28 83.09 87.71 84.56 87.71 84.56 82.66 89.71 82.66 89.71 87.71 91.18 87.71 91.18 76.28 89.71 76.28 89.71 81.46"/>
      <path d="M97.32,76.28l-3.48,11.43h1.46l.81-2.71h4.59l.81,2.71h1.46l-3.48-11.43h-2.18ZM96.47,83.8l1.85-6.2h.16l1.85,6.2h-3.87Z"/>
      <path d="M112.47,82.73c.41-.53.61-1.42.61-2.66,0-.95-.09-1.7-.27-2.26-.18-.55-.49-.95-.91-1.18-.43-.23-1.02-.35-1.77-.35h-4.43v11.43h1.46v-4.19h2.92l1.98,4.19h1.59l-2.12-4.36c.4-.13.72-.33.94-.63ZM107.16,77.49h3.02c.52,0,.88.05,1.08.16.19.11.29.31.29.6v3.29c0,.29-.1.49-.29.6-.2.11-.56.16-1.08.16h-3.02v-4.83Z"/>
      <path d="M123.19,81.91v-.11c.39-.28.67-.63.83-1.04.16-.41.25-.98.25-1.68,0-.96-.24-1.67-.73-2.12-.49-.45-1.24-.68-2.27-.68h-4.23v11.43h4.81c.96,0,1.7-.28,2.21-.83.51-.55.77-1.35.77-2.39,0-.65-.14-1.19-.42-1.62-.28-.43-.69-.75-1.23-.96ZM122.47,77.81c.23.3.34.84.34,1.62s-.12,1.28-.35,1.57-.65.44-1.24.44h-2.71v-4.08h2.73c.6,0,1.01.15,1.23.45ZM123.01,86.12c-.26.34-.69.51-1.3.51h-3.2v-4.17h3.22c.61,0,1.04.15,1.29.46.25.31.37.81.37,1.52,0,.78-.13,1.34-.38,1.68Z"/>
      <path d="M131.13,76.28l-3.48,11.43h1.46l.81-2.71h4.59l.81,2.71h1.46l-3.48-11.43h-2.18ZM130.28,83.8l1.85-6.2h.16l1.85,6.2h-3.87Z"/>
      <path d="M146.28,82.73c.41-.53.61-1.42.61-2.66,0-.95-.09-1.7-.27-2.26-.18-.55-.49-.95-.91-1.18-.43-.23-1.02-.35-1.77-.35h-4.43v11.43h1.46v-4.19h2.92l1.98,4.19h1.59l-2.12-4.36c.4-.13.72-.33.94-.63ZM140.97,77.49h3.02c.52,0,.88.05,1.08.16.19.11.29.31.29.6v3.29c0,.29-.1.49-.29.6-.2.11-.56.16-1.08.16h-3.02v-4.83Z"/>
      <path d="M156.64,86.65c-.51.09-1.02.13-1.55.13-.43,0-.84-.02-1.23-.07-.4-.05-.76-.12-1.09-.22v-7.81c0-.62.17-1.01.5-1.17.34-.16.86-.24,1.58-.24.21,0,.48.01.82.04.34.02.7.06,1.09.1.38.04.73.11,1.05.19l.18-1.23c-.23-.09-.51-.16-.82-.21-.32-.05-.63-.09-.95-.12-.32-.02-.6-.04-.84-.04-.87,0-1.57.09-2.11.27-.54.18-.96.49-1.26.93-.3.45-.51,1.06-.62,1.83-.12.77-.17,1.77-.17,2.97s.05,2.16.16,2.94c.11.77.31,1.38.6,1.83.29.45.7.76,1.23.94.52.18,1.2.27,2.03.27.63,0,1.19-.04,1.66-.11s.94-.19,1.39-.37l-.16-1.19c-.49.13-.99.24-1.49.33Z"/>
      <polygon points="168.6 81.46 163.44 81.46 163.44 76.28 161.98 76.28 161.98 87.71 163.44 87.71 163.44 82.66 168.6 82.66 168.6 87.71 170.06 87.71 170.06 76.28 168.6 76.28 168.6 81.46"/>
      <rect x="176.56" y="76.28" width="1.46" height="11.43"/>
      <path d="M79.76,40.02c1.78-.48,3.44-1.22,4.97-2.22,1.53-1.01,2.88-2.33,4.05-3.98.19-.26.36-.55.54-.84.24.03.5.05.77.05h5.74v-7.86h-4.5c-.82-1.94-1.86-3.53-3.11-4.75-1.25-1.22-2.81-2.13-4.67-2.72-1.86-.59-4.16-.89-6.9-.89-1.02,0-2.11.04-3.26.12-1.15.08-2.37.21-3.66.37l1.04,7.71c1.12-.16,2.18-.26,3.16-.3.99-.03,1.91-.05,2.77-.05,1.81,0,3.32.19,4.52.57,1.2.38,2.19.98,2.97,1.8.09.09.17.2.25.3-.19.37-.38.74-.6,1.08-.54.86-1.21,1.62-2,2.3-.79.68-1.77,1.21-2.94,1.61-1.17.4-2.53.59-4.08.59h-20.82c-1.38,0-2.76-.11-4.13-.32-1.37-.21-2.89-.54-4.57-.96l-1.04,7.47c1.78.53,3.68.93,5.69,1.21,2.01.28,3.92.42,5.74.42h.59v3.71c0,.69-.26,1.23-.77,1.61-.51.38-1.36.64-2.55.79-1.19.15-2.82.22-4.9.22h-13.89c-.2-.73-.33-1.5-.4-2.32-.07-.82-.1-1.76-.1-2.82,0-1.29.14-2.57.42-3.86.28-1.29.63-2.6,1.06-3.96l-6.82-1.14c-.33,1.06-.63,2.16-.89,3.31-.26,1.15-.45,2.32-.57,3.51-.12,1.19-.17,2.36-.17,3.51,0,2.24.29,4.12.87,5.64.58,1.52,1.53,2.7,2.87,3.56,1.33.86,3.17,1.47,5.51,1.83,2.34.36,5.27.54,8.8.54s6.68-.2,9.07-.59c2.39-.4,4.28-1.04,5.66-1.93,1.38-.89,2.36-2.09,2.92-3.58.56-1.5.84-3.34.84-5.51v-2.52h10.88c1.98,0,3.86-.24,5.64-.72Z"/>
      <path d="M107.54,39.7v-22.2h-6.92v22.2c0,1.75-.13,3.15-.4,4.2-.26,1.05-.74,1.9-1.43,2.55-.69.64-1.68,1.26-2.97,1.85l2.57,6.23c2.21-.96,3.99-2.08,5.34-3.36,1.35-1.29,2.32-2.86,2.92-4.72.59-1.86.89-4.11.89-6.75Z"/>
      <polygon points="130.12 32.92 124.58 32.92 122.6 32.92 119.78 32.92 119.78 9.58 112.81 9.58 112.81 40.73 122.6 40.73 124.58 40.73 137.09 40.73 137.09 17.5 130.12 17.5 130.12 32.92"/>
      <path d="M142.91,39.7c0,1.75-.13,3.15-.4,4.2-.26,1.05-.74,1.9-1.43,2.55-.69.64-1.68,1.26-2.97,1.85l2.57,6.23c2.21-.96,3.99-2.08,5.34-3.36,1.35-1.29,2.32-2.86,2.92-4.72.59-1.86.89-4.11.89-6.75v-22.2h-6.92v22.2Z"/>
      <rect x="154.62" y="9.58" width="6.97" height="31.15"/>
      <path d="M218.74,25.16c-.82-1.94-1.86-3.53-3.11-4.75-1.25-1.22-2.81-2.13-4.67-2.72-1.86-.59-4.16-.89-6.9-.89-1.02,0-2.11.04-3.26.12-1.15.08-2.37.21-3.66.37l1.04,7.71c1.12-.16,2.18-.26,3.16-.3.99-.03,1.91-.05,2.77-.05,1.81,0,3.32.19,4.52.57,1.2.38,2.19.98,2.97,1.8.09.1.18.2.26.3-.19.37-.39.74-.61,1.09-.54.86-1.21,1.62-2,2.3-.79.68-1.77,1.21-2.94,1.61-1.17.4-2.53.59-4.08.59h-12.06v-14.24c-1.71-.69-3.45-1.18-5.22-1.46-1.76-.28-3.87-.42-6.3-.42-2.18,0-4.05.22-5.61.67-1.57.45-2.83,1.13-3.78,2.05-.96.92-1.67,2.13-2.15,3.61-.48,1.48-.72,3.26-.72,5.34,0,2.21.2,4.1.59,5.66.4,1.57.98,2.84,1.76,3.81.77.97,1.8,1.68,3.09,2.13,1.29.45,2.8.67,4.55.67h4.87c-.14.29-.28.58-.43.87-.76,1.47-1.67,2.87-2.72,4.2-1.06,1.33-2.21,2.53-3.46,3.58l4.65,5.14c1.61-1.42,3.08-2.99,4.4-4.72,1.32-1.73,2.46-3.54,3.44-5.41.62-1.2,1.15-2.42,1.59-3.66h12.82c1.98,0,3.86-.24,5.64-.72,1.78-.48,3.44-1.22,4.97-2.22,1.53-1.01,2.88-2.33,4.05-3.98.19-.27.37-.55.55-.83.24.03.49.04.76.04h5.74v-7.86h-4.5ZM183.19,30.9c0,.76-.15,1.29-.45,1.58-.3.3-.82.44-1.58.44h-7.37v-6.18c0-.82.2-1.38.59-1.66.4-.28,1.12-.42,2.18-.42h6.63v6.23Z"/>
      <polygon points="77.36 50.72 87.12 50.72 87.12 43.92 70.56 43.92 70.56 45.16 70.56 50.72 70.56 54.88 77.36 54.88 77.36 50.72"/>
      <rect x="121.55" y="45.15" width="6.8" height="6.8"/>
      <rect x="189.69" y="9.58" width="6.8" height="6.8"/>
      <rect x="26.49" y="81.21" width="39.29" height="1.56"/>
      <rect x="182.98" y="81.21" width="39.29" height="1.56"/>
    </g>
  </g>
</svg>