<?xml version="1.0" encoding="UTF-8"?>
<svg id="Layer_2" data-name="Layer 2" xmlns="http://www.w3.org/2000/svg" viewBox="0 0 213.24 76.49">
  <defs>
    <style>
      .cls-1 {
        fill: #d1b842;
      }
    </style>
  </defs>
  <g id="Layer_1-2" data-name="Layer 1">
    <g>
      <path class="cls-1" d="M57.69,63.8h-1.8l-1.33,2.68c-.2.4-.39.83-.56,1.29-.18.46-.27.94-.27,1.43h-2.89v-5.39h-1.59v12.39h1.59v-5.73h2.89c0,.49.09.96.28,1.43.19.46.37.89.56,1.29l1.43,3.01h1.8l-3.09-6.36,2.99-6.03Z"/>
      <polygon class="cls-1" points="68.52 69.41 62.93 69.41 62.93 63.8 61.35 63.8 61.35 76.19 62.93 76.19 62.93 70.72 68.52 70.72 68.52 76.19 70.11 76.19 70.11 63.8 68.52 63.8 68.52 69.41"/>
      <path class="cls-1" d="M76.76,63.8l-3.77,12.39h1.59l.88-2.93h4.97l.88,2.93h1.59l-3.77-12.39h-2.36ZM75.85,71.95l2.01-6.72h.18l2.01,6.72h-4.19Z"/>
      <path class="cls-1" d="M93.19,70.79c.44-.57.66-1.54.66-2.88,0-1.03-.1-1.85-.3-2.45-.2-.6-.53-1.03-.99-1.28-.46-.25-1.1-.38-1.92-.38h-4.8v12.39h1.59v-4.54h3.17l2.15,4.54h1.72l-2.3-4.72c.43-.14.78-.36,1.02-.68ZM87.43,65.11h3.27c.57,0,.96.06,1.17.18.21.12.32.34.32.65v3.57c0,.32-.11.54-.32.65-.21.12-.6.18-1.17.18h-3.27v-5.23Z"/>
      <path class="cls-1" d="M104.81,69.91v-.12c.42-.3.72-.68.9-1.13.18-.45.27-1.06.27-1.82,0-1.04-.26-1.81-.79-2.3-.53-.49-1.35-.73-2.46-.73h-4.58v12.39h5.21c1.04,0,1.84-.3,2.4-.9.56-.6.83-1.46.83-2.59,0-.7-.15-1.29-.46-1.75-.3-.47-.75-.82-1.33-1.04ZM104.02,65.46c.24.32.37.91.37,1.75s-.13,1.39-.38,1.7-.7.48-1.35.48h-2.93v-4.42h2.95c.65,0,1.09.16,1.34.49ZM104.61,74.47c-.28.37-.75.56-1.41.56h-3.47v-4.52h3.49c.66,0,1.13.17,1.4.5.27.33.41.88.41,1.65,0,.85-.14,1.45-.42,1.82Z"/>
      <path class="cls-1" d="M113.4,63.8l-3.77,12.39h1.59l.88-2.93h4.97l.88,2.93h1.59l-3.77-12.39h-2.36ZM112.49,71.95l2.01-6.72h.18l2.01,6.72h-4.19Z"/>
      <path class="cls-1" d="M129.83,70.79c.44-.57.66-1.54.66-2.88,0-1.03-.1-1.85-.3-2.45-.2-.6-.53-1.03-.99-1.28-.46-.25-1.1-.38-1.92-.38h-4.8v12.39h1.59v-4.54h3.17l2.15,4.54h1.73l-2.3-4.72c.43-.14.78-.36,1.02-.68ZM124.07,65.11h3.27c.57,0,.96.06,1.17.18.21.12.32.34.32.65v3.57c0,.32-.11.54-.32.65-.21.12-.6.18-1.17.18h-3.27v-5.23Z"/>
      <path class="cls-1" d="M141.05,75.04c-.55.09-1.11.14-1.68.14-.46,0-.91-.03-1.34-.08-.43-.05-.82-.13-1.18-.24v-8.47c0-.67.18-1.1.55-1.27.36-.17.93-.26,1.71-.26.22,0,.52.01.89.04.37.03.76.06,1.18.11.42.05.8.12,1.14.21l.2-1.33c-.25-.09-.55-.17-.89-.23-.34-.06-.69-.1-1.03-.13-.34-.03-.65-.04-.91-.04-.94,0-1.7.1-2.29.29-.59.19-1.04.53-1.37,1.01-.32.48-.55,1.14-.67,1.98-.13.84-.19,1.91-.19,3.22s.06,2.34.18,3.18c.12.84.34,1.5.65,1.98.32.48.76.82,1.33,1.02.57.2,1.3.3,2.2.3.69,0,1.29-.04,1.8-.12s1.02-.21,1.51-.4l-.18-1.29c-.53.15-1.07.26-1.62.36Z"/>
      <polygon class="cls-1" points="154.02 69.41 148.43 69.41 148.43 63.8 146.84 63.8 146.84 76.19 148.43 76.19 148.43 70.72 154.02 70.72 154.02 76.19 155.6 76.19 155.6 63.8 154.02 63.8 154.02 69.41"/>
      <rect class="cls-1" x="162.64" y="63.8" width="1.59" height="12.39"/>
      <path class="cls-1" d="M57.73,32.98c1.93-.52,3.72-1.32,5.39-2.41,1.66-1.09,3.13-2.53,4.39-4.31.2-.29.39-.6.58-.91.26.03.54.05.84.05h6.22v-8.52h-4.88c-.89-2.11-2.02-3.82-3.38-5.14-1.36-1.32-3.05-2.3-5.06-2.95-2.02-.64-4.51-.96-7.48-.96-1.11,0-2.29.05-3.54.13-1.25.09-2.57.22-3.97.4l1.13,8.36c1.21-.18,2.36-.29,3.43-.32,1.07-.04,2.07-.05,3-.05,1.96,0,3.6.21,4.9.62,1.3.41,2.38,1.06,3.22,1.96.1.1.18.22.27.33-.2.4-.41.8-.65,1.17-.59.93-1.31,1.76-2.17,2.49-.86.73-1.92,1.31-3.19,1.74-1.27.43-2.74.64-4.42.64h-22.56c-1.5,0-2.99-.12-4.47-.35-1.48-.23-3.14-.58-4.96-1.04l-1.13,8.09c1.93.57,3.98,1.01,6.16,1.31,2.18.3,4.25.46,6.22.46h.64v4.02c0,.75-.28,1.33-.83,1.74-.55.41-1.47.7-2.76.86-1.29.16-3.05.24-5.31.24h-15.06c-.21-.79-.36-1.63-.43-2.52-.07-.89-.11-1.91-.11-3.05,0-1.39.15-2.79.46-4.18.3-1.39.69-2.82,1.15-4.29l-7.39-1.23c-.36,1.14-.68,2.34-.96,3.59-.29,1.25-.49,2.52-.62,3.8-.13,1.29-.19,2.55-.19,3.8,0,2.43.31,4.47.94,6.11.62,1.64,1.66,2.93,3.11,3.86,1.45.93,3.44,1.59,5.97,1.98,2.54.39,5.72.59,9.54.59s7.24-.21,9.83-.64c2.59-.43,4.64-1.13,6.14-2.09,1.5-.96,2.55-2.26,3.16-3.88.61-1.63.91-3.62.91-5.97v-2.73h11.79c2.14,0,4.18-.26,6.11-.78Z"/>
      <path class="cls-1" d="M87.85,32.63V8.57h-7.5v24.06c0,1.89-.14,3.41-.43,4.56-.29,1.14-.8,2.06-1.55,2.76-.75.7-1.82,1.37-3.22,2.01l2.79,6.75c2.39-1.04,4.32-2.25,5.79-3.64,1.46-1.39,2.52-3.1,3.16-5.12.64-2.02.96-4.46.96-7.31Z"/>
      <polygon class="cls-1" points="112.31 25.29 106.31 25.29 104.16 25.29 101.11 25.29 101.11 0 93.55 0 93.55 33.76 104.16 33.76 106.31 33.76 119.86 33.76 119.86 8.57 112.31 8.57 112.31 25.29"/>
      <path class="cls-1" d="M126.17,32.63c0,1.89-.14,3.41-.43,4.56-.29,1.14-.8,2.06-1.55,2.76-.75.7-1.82,1.37-3.22,2.01l2.79,6.75c2.39-1.04,4.32-2.25,5.79-3.64,1.46-1.39,2.52-3.1,3.16-5.12.64-2.02.96-4.46.96-7.31V8.57h-7.5v24.06Z"/>
      <rect class="cls-1" x="138.86" width="7.56" height="33.76"/>
      <path class="cls-1" d="M208.36,16.88c-.89-2.11-2.02-3.82-3.38-5.14-1.36-1.32-3.05-2.3-5.06-2.95-2.02-.64-4.51-.96-7.48-.96-1.11,0-2.29.05-3.54.13-1.25.09-2.57.22-3.97.4l1.13,8.36c1.21-.18,2.36-.29,3.43-.32,1.07-.04,2.07-.05,3-.05,1.96,0,3.6.21,4.9.62,1.3.41,2.38,1.06,3.22,1.96.1.1.19.21.28.32-.2.4-.42.8-.66,1.18-.59.93-1.31,1.76-2.17,2.49-.86.73-1.92,1.31-3.19,1.74-1.27.43-2.74.64-4.42.64h-13.07v-15.43c-1.86-.75-3.74-1.28-5.65-1.58-1.91-.3-4.19-.46-6.83-.46-2.36,0-4.39.24-6.08.72-1.7.48-3.06,1.22-4.1,2.22-1.04,1-1.81,2.3-2.33,3.91-.52,1.61-.78,3.54-.78,5.79,0,2.39.21,4.44.64,6.14.43,1.7,1.06,3.07,1.9,4.13.84,1.05,1.96,1.82,3.35,2.3,1.39.48,3.04.72,4.93.72h5.28c-.15.31-.3.63-.46.94-.82,1.59-1.8,3.11-2.95,4.56-1.14,1.45-2.39,2.74-3.75,3.88l5.04,5.57c1.75-1.54,3.34-3.24,4.77-5.12,1.43-1.88,2.67-3.83,3.72-5.87.67-1.3,1.25-2.63,1.73-3.97h13.89c2.14,0,4.18-.26,6.11-.78,1.93-.52,3.72-1.32,5.39-2.41,1.66-1.09,3.13-2.53,4.39-4.31.21-.29.4-.59.6-.9.26.03.53.05.82.05h6.22v-8.52h-4.88ZM169.83,23.1c0,.82-.16,1.39-.48,1.71-.32.32-.89.48-1.71.48h-7.98v-6.7c0-.89.21-1.49.64-1.8.43-.3,1.21-.46,2.36-.46h7.18v6.75Z"/>
      <polygon class="cls-1" points="55.13 44.59 65.71 44.59 65.71 37.22 47.76 37.22 47.76 38.56 47.76 44.59 47.76 49.08 55.13 49.08 55.13 44.59"/>
      <rect class="cls-1" x="103.02" y="38.54" width="7.37" height="7.37"/>
      <rect class="cls-1" x="176.87" width="7.37" height="7.37"/>
      <rect class="cls-1" y="69.15" width="42.58" height="1.7"/>
      <rect class="cls-1" x="169.6" y="69.15" width="42.58" height="1.7"/>
    </g>
  </g>
</svg>