<?xml version="1.0" encoding="UTF-8"?>
<svg id="Layer_2" data-name="Layer 2" xmlns="http://www.w3.org/2000/svg" viewBox="0 0 251.29 147.05">
  <defs>
    <style>
      .cls-1 {
        fill: #2fac66;
      }

      .cls-2 {
        fill: #aa9830;
      }

      .cls-3 {
        fill: #b17f4a;
      }
    </style>
  </defs>
  <g id="Layer_1-2" data-name="Layer 1">
    <g>
      <path d="M67.83,38.91c2.28-.61,4.39-1.56,6.35-2.84,1.96-1.29,3.69-2.98,5.18-5.09.24-.34.46-.71.69-1.07.31.04.64.06.99.06h7.33v-10.05h-5.75c-1.05-2.49-2.38-4.51-3.98-6.07-1.6-1.56-3.59-2.72-5.97-3.48-2.38-.76-5.32-1.14-8.82-1.14-1.31,0-2.7.05-4.17.16-1.48.11-3.03.26-4.68.47l1.33,9.86c1.43-.21,2.78-.34,4.05-.38,1.26-.04,2.44-.06,3.54-.06,2.32,0,4.25.24,5.78.73,1.54.49,2.8,1.25,3.79,2.31.11.12.21.26.32.39-.24.47-.48.94-.76,1.38-.7,1.1-1.55,2.08-2.56,2.94-1.01.86-2.27,1.55-3.76,2.05-1.5.51-3.23.76-5.22.76h-26.61c-1.77,0-3.53-.14-5.28-.41-1.75-.27-3.7-.68-5.85-1.23l-1.33,9.55c2.28.67,4.7,1.19,7.27,1.55,2.57.36,5.02.54,7.33.54h.76v4.74c0,.88-.33,1.57-.98,2.05-.65.48-1.74.82-3.26,1.01-1.52.19-3.6.28-6.26.28H9.55c-.25-.93-.42-1.92-.51-2.97-.08-1.05-.13-2.26-.13-3.6,0-1.64.18-3.29.54-4.93.36-1.64.81-3.33,1.36-5.06l-8.72-1.45c-.42,1.35-.8,2.76-1.14,4.24-.34,1.48-.58,2.97-.73,4.49C.07,40.14,0,41.64,0,43.11,0,45.98.37,48.38,1.11,50.32c.74,1.94,1.96,3.46,3.67,4.55,1.71,1.1,4.06,1.87,7.05,2.34,2.99.46,6.74.7,11.25.7s8.54-.25,11.6-.76c3.05-.51,5.47-1.33,7.24-2.47,1.77-1.14,3.01-2.67,3.73-4.58.72-1.92,1.07-4.27,1.07-7.05v-3.22h13.91c2.53,0,4.93-.31,7.21-.92Z"/>
      <path d="M103.36,38.5V10.11h-8.85v28.38c0,2.23-.17,4.02-.51,5.37-.34,1.35-.95,2.43-1.83,3.26-.88.82-2.15,1.61-3.79,2.37l3.29,7.97c2.82-1.22,5.1-2.66,6.83-4.3,1.73-1.64,2.97-3.66,3.73-6.04.76-2.38,1.14-5.26,1.14-8.63Z"/>
      <polygon points="132.22 29.84 125.14 29.84 122.61 29.84 119.01 29.84 119.01 0 110.09 0 110.09 39.83 122.61 39.83 125.14 39.83 141.13 39.83 141.13 10.11 132.22 10.11 132.22 29.84"/>
      <path d="M148.57,38.5c0,2.23-.17,4.02-.51,5.37-.34,1.35-.95,2.43-1.83,3.26-.89.82-2.15,1.61-3.79,2.37l3.29,7.97c2.82-1.22,5.1-2.66,6.83-4.3,1.73-1.64,2.97-3.66,3.73-6.04.76-2.38,1.14-5.26,1.14-8.63V10.11h-8.85v28.38Z"/>
      <rect x="163.55" width="8.91" height="39.83"/>
      <path d="M245.53,19.91c-1.05-2.49-2.38-4.51-3.98-6.07-1.6-1.56-3.59-2.72-5.97-3.48-2.38-.76-5.32-1.14-8.82-1.14-1.31,0-2.7.05-4.17.16-1.48.11-3.03.26-4.68.47l1.33,9.86c1.43-.21,2.78-.34,4.05-.38,1.26-.04,2.44-.06,3.54-.06,2.32,0,4.25.24,5.78.73,1.54.49,2.8,1.25,3.79,2.31.11.12.23.25.34.38-.24.48-.49.94-.78,1.39-.7,1.1-1.55,2.08-2.56,2.94-1.01.86-2.27,1.55-3.76,2.05-1.5.51-3.24.76-5.22.76h-15.42V11.63c-2.19-.88-4.42-1.51-6.67-1.86-2.25-.36-4.94-.54-8.06-.54-2.78,0-5.17.28-7.17.85-2,.57-3.61,1.44-4.84,2.62-1.22,1.18-2.14,2.72-2.75,4.61-.61,1.9-.92,4.17-.92,6.83,0,2.82.25,5.24.76,7.24.51,2,1.25,3.63,2.24,4.87.99,1.24,2.31,2.15,3.95,2.72,1.64.57,3.58.85,5.82.85h6.23c-.17.37-.35.74-.54,1.11-.97,1.87-2.13,3.67-3.48,5.37-1.35,1.71-2.82,3.23-4.43,4.58l5.94,6.57c2.06-1.81,3.94-3.82,5.63-6.04,1.69-2.21,3.15-4.52,4.39-6.92.8-1.54,1.47-3.1,2.04-4.68h16.39c2.53,0,4.93-.31,7.21-.92,2.28-.61,4.39-1.56,6.35-2.84,1.96-1.29,3.69-2.98,5.18-5.09.24-.34.48-.7.7-1.07.31.04.63.05.97.05h7.33v-10.05h-5.75ZM200.08,27.25c0,.97-.19,1.64-.57,2.02-.38.38-1.05.57-2.02.57h-9.42v-7.9c0-1.05.25-1.76.76-2.12.51-.36,1.43-.54,2.78-.54h8.47v7.97Z"/>
      <polygon points="64.77 52.6 77.25 52.6 77.25 43.9 56.07 43.9 56.07 45.48 56.07 52.6 56.07 57.91 64.77 57.91 64.77 52.6"/>
      <rect x="121.26" y="45.47" width="8.7" height="8.7"/>
      <rect x="242.59" width="8.7" height="8.7"/>
    </g>
    <g>
      <path d="M67.78,132.08h-2.13l-1.57,3.16c-.23.47-.46.97-.67,1.52-.21.55-.32,1.11-.32,1.68h-3.41v-6.36h-1.87v14.62h1.87v-6.76h3.41c0,.58.11,1.14.33,1.68.22.55.44,1.05.65,1.52l1.68,3.55h2.13l-3.65-7.51,3.53-7.11Z"/>
      <polygon points="80.56 138.7 73.97 138.7 73.97 132.08 72.1 132.08 72.1 146.7 73.97 146.7 73.97 140.24 80.56 140.24 80.56 146.7 82.43 146.7 82.43 132.08 80.56 132.08 80.56 138.7"/>
      <path d="M90.28,132.08l-4.44,14.62h1.87l1.03-3.46h5.86l1.03,3.46h1.87l-4.44-14.62h-2.78ZM89.2,141.69l2.37-7.93h.21l2.37,7.93h-4.94Z"/>
      <path d="M109.66,140.33c.52-.68.78-1.81.78-3.4,0-1.22-.12-2.18-.35-2.89-.23-.71-.62-1.21-1.17-1.51-.55-.3-1.3-.44-2.27-.44h-5.66v14.62h1.87v-5.36h3.74l2.53,5.36h2.03l-2.71-5.57c.51-.17.91-.43,1.2-.8ZM102.87,133.62h3.86c.67,0,1.13.07,1.38.21.25.14.37.4.37.77v4.21c0,.37-.12.63-.37.77-.25.14-.71.21-1.38.21h-3.86v-6.17Z"/>
      <path d="M123.37,139.28v-.14c.5-.36.85-.8,1.06-1.33.21-.53.32-1.25.32-2.15,0-1.23-.31-2.14-.94-2.71-.62-.58-1.59-.87-2.9-.87h-5.4v14.62h6.15c1.23,0,2.18-.35,2.83-1.06.65-.71.98-1.73.98-3.05,0-.83-.18-1.52-.54-2.07-.36-.55-.88-.96-1.57-1.23ZM122.44,134.03c.29.38.43,1.07.43,2.07s-.15,1.64-.44,2.01c-.3.37-.83.56-1.59.56h-3.46v-5.22h3.48c.76,0,1.29.19,1.58.57ZM123.13,144.66c-.33.44-.88.66-1.66.66h-4.09v-5.33h4.12c.78,0,1.33.2,1.65.58.32.39.48,1.04.48,1.94,0,1-.16,1.72-.49,2.15Z"/>
      <path d="M133.51,132.08l-4.44,14.62h1.87l1.03-3.46h5.86l1.03,3.46h1.87l-4.44-14.62h-2.78ZM132.43,141.69l2.37-7.93h.21l2.37,7.93h-4.94Z"/>
      <path d="M152.89,140.33c.52-.68.78-1.81.78-3.4,0-1.22-.12-2.18-.35-2.89-.23-.71-.62-1.21-1.17-1.51-.55-.3-1.3-.44-2.27-.44h-5.66v14.62h1.87v-5.36h3.74l2.53,5.36h2.04l-2.71-5.57c.51-.17.91-.43,1.2-.8ZM146.09,133.62h3.86c.67,0,1.13.07,1.38.21.25.14.37.4.37.77v4.21c0,.37-.12.63-.37.77-.25.14-.71.21-1.38.21h-3.86v-6.17Z"/>
      <path d="M166.13,145.34c-.65.11-1.31.16-1.98.16-.55,0-1.07-.03-1.58-.09-.51-.06-.97-.16-1.39-.28v-9.99c0-.8.21-1.29.64-1.5.43-.2,1.1-.3,2.02-.3.26,0,.62.02,1.05.05.44.03.9.07,1.39.13.49.05.94.14,1.34.25l.23-1.57c-.3-.11-.65-.2-1.05-.27-.41-.07-.81-.12-1.22-.15-.41-.03-.76-.05-1.08-.05-1.11,0-2.01.11-2.7.34-.69.23-1.23.62-1.61,1.19-.38.57-.65,1.35-.8,2.34-.15.99-.22,2.26-.22,3.8s.07,2.76.21,3.75c.14.99.4,1.77.77,2.34.37.57.9.97,1.57,1.2.67.23,1.54.35,2.6.35.81,0,1.52-.05,2.13-.14s1.2-.25,1.78-.47l-.21-1.52c-.62.17-1.26.31-1.91.42Z"/>
      <polygon points="181.42 138.7 174.83 138.7 174.83 132.08 172.96 132.08 172.96 146.7 174.83 146.7 174.83 140.24 181.42 140.24 181.42 146.7 183.29 146.7 183.29 132.08 181.42 132.08 181.42 138.7"/>
      <rect x="191.6" y="132.08" width="1.87" height="14.62"/>
      <rect x="199.81" y="138.39" width="29.66" height="2"/>
      <rect x="20.3" y="138.39" width="29.66" height="2"/>
    </g>
    <g>
      <rect class="cls-2" x="0" y="73.04" width="77.27" height="43.55" rx="21.77" ry="21.77"/>
      <rect class="cls-1" x="86.02" y="73.04" width="112.84" height="43.55" rx="21.77" ry="21.77"/>
      <rect class="cls-3" x="207.69" y="73.04" width="43.55" height="43.55" rx="21.77" ry="21.77"/>
    </g>
  </g>
</svg>