<?xml version="1.0" encoding="UTF-8"?>
<svg id="Layer_2" data-name="Layer 2" xmlns="http://www.w3.org/2000/svg" viewBox="0 0 178.85 173.02">
  <defs>
    <style>
      .cls-1 {
        fill: #fff;
      }

      .cls-2 {
        fill: #aa9830;
      }
    </style>
  </defs>
  <g id="Layer_1-2" data-name="Layer 1">
    <path class="cls-2" d="M89.42,0h0C138.78,0,178.85,40.07,178.85,89.42v64.92H0v-64.92C0,40.07,40.07,0,89.42,0Z"/>
    <g>
      <path class="cls-1" d="M53.93,131.14c1.4-.37,2.7-.96,3.9-1.75,1.2-.79,2.26-1.83,3.18-3.12.15-.21.28-.43.42-.66.19.02.39.04.61.04h4.5v-6.17h-3.53c-.65-1.53-1.46-2.77-2.44-3.73-.98-.96-2.21-1.67-3.67-2.13-1.46-.47-3.27-.7-5.41-.7-.8,0-1.66.03-2.56.1-.91.06-1.86.16-2.87.29l.81,6.05c.88-.13,1.71-.21,2.48-.23.78-.03,1.5-.04,2.17-.04,1.42,0,2.61.15,3.55.45.94.3,1.72.77,2.33,1.42.07.07.13.16.2.24-.15.29-.3.58-.47.85-.43.67-.95,1.27-1.57,1.8-.62.53-1.39.95-2.31,1.26-.92.31-1.99.47-3.2.47h-16.34c-1.09,0-2.17-.08-3.24-.25-1.07-.17-2.27-.42-3.59-.76l-.81,5.86c1.4.41,2.88.73,4.46.95,1.58.22,3.08.33,4.5.33h.47v2.91c0,.54-.2.96-.6,1.26-.4.3-1.07.5-2,.62-.93.12-2.21.17-3.84.17h-10.9c-.16-.57-.26-1.18-.31-1.82-.05-.65-.08-1.38-.08-2.21,0-1.01.11-2.02.33-3.03.22-1.01.5-2.04.83-3.1l-5.36-.89c-.26.83-.49,1.69-.7,2.6-.21.91-.36,1.82-.45,2.76-.09.93-.14,1.85-.14,2.76,0,1.76.23,3.23.68,4.42.45,1.19,1.2,2.12,2.25,2.79,1.05.67,2.49,1.15,4.33,1.44,1.84.28,4.14.43,6.91.43s5.25-.16,7.12-.47c1.88-.31,3.36-.81,4.44-1.51,1.09-.7,1.85-1.64,2.29-2.81.44-1.18.66-2.62.66-4.33v-1.98h8.54c1.55,0,3.03-.19,4.42-.56Z"/>
      <path class="cls-1" d="M75.74,130.89v-17.42h-5.43v17.42c0,1.37-.1,2.47-.31,3.3-.21.83-.58,1.49-1.13,2-.54.5-1.32.99-2.33,1.46l2.02,4.89c1.73-.75,3.13-1.63,4.19-2.64,1.06-1.01,1.82-2.24,2.29-3.71.47-1.46.7-3.23.7-5.3Z"/>
      <polygon class="cls-1" points="93.46 125.57 89.11 125.57 87.56 125.57 85.35 125.57 85.35 107.25 79.88 107.25 79.88 131.7 87.56 131.7 89.11 131.7 98.93 131.7 98.93 113.46 93.46 113.46 93.46 125.57"/>
      <path class="cls-1" d="M103.5,130.89c0,1.37-.1,2.47-.31,3.3-.21.83-.58,1.49-1.13,2-.54.5-1.32.99-2.33,1.46l2.02,4.89c1.73-.75,3.13-1.63,4.19-2.64,1.06-1.01,1.82-2.24,2.29-3.71.47-1.46.7-3.23.7-5.3v-17.42h-5.43v17.42Z"/>
      <rect class="cls-1" x="112.69" y="107.25" width="5.47" height="24.45"/>
      <path class="cls-1" d="M163.02,119.48c-.65-1.53-1.46-2.77-2.44-3.73-.98-.96-2.21-1.67-3.67-2.13-1.46-.47-3.27-.7-5.41-.7-.8,0-1.66.03-2.56.1-.91.06-1.86.16-2.87.29l.82,6.05c.88-.13,1.71-.21,2.48-.23.78-.03,1.5-.04,2.17-.04,1.42,0,2.61.15,3.55.45.94.3,1.72.77,2.33,1.42.07.08.14.15.21.23-.15.29-.3.58-.48.85-.43.67-.95,1.27-1.57,1.8-.62.53-1.39.95-2.31,1.26-.92.31-1.99.47-3.2.47h-9.47v-11.18c-1.35-.54-2.71-.92-4.09-1.14-1.38-.22-3.03-.33-4.95-.33-1.71,0-3.18.17-4.4.52-1.23.35-2.22.89-2.97,1.61-.75.72-1.31,1.67-1.69,2.83-.38,1.16-.56,2.56-.56,4.19,0,1.73.16,3.21.47,4.44.31,1.23.77,2.23,1.38,2.99.61.76,1.42,1.32,2.43,1.67,1.01.35,2.2.52,3.57.52h3.83c-.11.23-.22.45-.33.68-.6,1.15-1.31,2.25-2.13,3.3-.83,1.05-1.73,1.99-2.72,2.81l3.65,4.04c1.27-1.11,2.42-2.35,3.45-3.71,1.03-1.36,1.93-2.77,2.7-4.25.49-.94.9-1.9,1.25-2.87h10.06c1.55,0,3.03-.19,4.42-.56,1.4-.37,2.7-.96,3.9-1.75,1.2-.79,2.26-1.83,3.18-3.12.15-.21.29-.43.43-.65.19.02.39.03.6.03h4.5v-6.17h-3.53ZM135.12,123.98c0,.6-.12,1.01-.35,1.24-.23.23-.65.35-1.24.35h-5.78v-4.85c0-.65.16-1.08.47-1.3.31-.22.88-.33,1.71-.33h5.2v4.89Z"/>
      <polygon class="cls-1" points="52.05 139.54 59.72 139.54 59.72 134.2 46.72 134.2 46.72 135.17 46.72 139.54 46.72 142.8 52.05 142.8 52.05 139.54"/>
      <rect class="cls-1" x="86.74" y="135.16" width="5.34" height="5.34"/>
      <rect class="cls-1" x="140.22" y="107.25" width="5.34" height="5.34"/>
    </g>
    <g>
      <path d="M52.52,163.35h-1.38l-1.01,2.04c-.15.3-.29.63-.43.98-.14.35-.2.72-.2,1.09h-2.21v-4.11h-1.21v9.45h1.21v-4.37h2.21c0,.37.07.74.21,1.09.14.35.28.68.42.98l1.09,2.3h1.38l-2.36-4.85,2.28-4.6Z"/>
      <polygon points="60.78 167.63 56.52 167.63 56.52 163.35 55.31 163.35 55.31 172.8 56.52 172.8 56.52 168.63 60.78 168.63 60.78 172.8 61.99 172.8 61.99 163.35 60.78 163.35 60.78 167.63"/>
      <path d="M67.06,163.35l-2.87,9.45h1.21l.67-2.24h3.79l.67,2.24h1.21l-2.87-9.45h-1.8ZM66.36,169.56l1.53-5.12h.14l1.53,5.12h-3.19Z"/>
      <path d="M79.59,168.68c.34-.44.51-1.17.51-2.2,0-.79-.08-1.41-.23-1.87-.15-.46-.4-.78-.76-.98-.35-.19-.84-.29-1.47-.29h-3.66v9.45h1.21v-3.46h2.42l1.64,3.46h1.32l-1.75-3.6c.33-.11.59-.28.78-.52ZM75.19,164.35h2.49c.43,0,.73.05.89.14.16.09.24.26.24.5v2.72c0,.24-.08.41-.24.5-.16.09-.46.14-.89.14h-2.49v-3.99Z"/>
      <path d="M88.44,168.01v-.09c.32-.23.55-.52.69-.86.14-.34.2-.81.2-1.39,0-.8-.2-1.38-.6-1.75-.4-.37-1.03-.56-1.87-.56h-3.49v9.45h3.98c.8,0,1.41-.23,1.83-.69.42-.46.63-1.12.63-1.97,0-.53-.12-.98-.35-1.34-.23-.36-.57-.62-1.01-.79ZM87.85,164.61c.19.25.28.69.28,1.34s-.1,1.06-.29,1.3-.53.36-1.03.36h-2.24v-3.37h2.25c.49,0,.83.12,1.02.37ZM88.29,171.48c-.21.28-.57.42-1.07.42h-2.65v-3.45h2.66c.5,0,.86.13,1.07.38.21.25.31.67.31,1.25,0,.64-.11,1.11-.32,1.39Z"/>
      <path d="M95,163.35l-2.87,9.45h1.21l.67-2.24h3.79l.67,2.24h1.21l-2.87-9.45h-1.8ZM94.3,169.56l1.53-5.12h.14l1.53,5.12h-3.19Z"/>
      <path d="M107.52,168.68c.34-.44.51-1.17.51-2.2,0-.79-.08-1.41-.23-1.87-.15-.46-.4-.78-.76-.98-.35-.19-.84-.29-1.47-.29h-3.66v9.45h1.21v-3.46h2.42l1.64,3.46h1.32l-1.75-3.6c.33-.11.59-.28.78-.52ZM103.13,164.35h2.49c.43,0,.73.05.89.14.16.09.24.26.24.5v2.72c0,.24-.08.41-.24.5-.16.09-.46.14-.89.14h-2.49v-3.99Z"/>
      <path d="M116.08,171.92c-.42.07-.84.11-1.28.11-.35,0-.69-.02-1.02-.06-.33-.04-.63-.1-.9-.18v-6.45c0-.51.14-.84.42-.97.28-.13.71-.2,1.31-.2.17,0,.4.01.68.03.28.02.58.05.9.08.32.04.61.09.87.16l.15-1.01c-.19-.07-.42-.13-.68-.17-.26-.05-.52-.08-.79-.1-.26-.02-.49-.03-.7-.03-.72,0-1.3.07-1.75.22-.45.15-.8.4-1.04.77-.25.37-.42.87-.51,1.51-.1.64-.14,1.46-.14,2.46s.05,1.79.14,2.43c.09.64.26,1.14.5,1.51.24.37.58.63,1.01.78.43.15.99.23,1.68.23.52,0,.98-.03,1.38-.09s.78-.16,1.15-.3l-.14-.98c-.4.11-.81.2-1.23.27Z"/>
      <polygon points="125.97 167.63 121.7 167.63 121.7 163.35 120.5 163.35 120.5 172.8 121.7 172.8 121.7 168.63 125.97 168.63 125.97 172.8 127.18 172.8 127.18 163.35 125.97 163.35 125.97 167.63"/>
      <rect x="132.54" y="163.35" width="1.21" height="9.45"/>
      <rect x="137.85" y="167.43" width="19.17" height="1.29"/>
      <rect x="21.83" y="167.43" width="19.17" height="1.29"/>
    </g>
  </g>
</svg>