<?xml version="1.0" encoding="UTF-8"?>
<svg id="Layer_2" data-name="Layer 2" xmlns="http://www.w3.org/2000/svg" viewBox="0 0 292.52 112.89">
  <defs>
    <style>
      .cls-1 {
        fill: #2fac66;
      }
    </style>
  </defs>
  <g id="Layer_1-2" data-name="Layer 1">
    <rect class="cls-1" x="89.81" y="-89.81" width="112.89" height="292.52" rx="56.45" ry="56.45" transform="translate(89.81 202.7) rotate(-90)"/>
    <g>
      <path d="M88.53,84.27h-2.13l-1.57,3.16c-.23.47-.46.97-.67,1.52-.21.55-.32,1.11-.32,1.68h-3.41v-6.36h-1.87v14.62h1.87v-6.76h3.41c0,.58.11,1.14.33,1.68.22.55.44,1.05.65,1.52l1.68,3.55h2.13l-3.65-7.51,3.53-7.11Z"/>
      <polygon points="101.31 90.89 94.72 90.89 94.72 84.27 92.85 84.27 92.85 98.88 94.72 98.88 94.72 92.43 101.31 92.43 101.31 98.88 103.19 98.88 103.19 84.27 101.31 84.27 101.31 90.89"/>
      <path d="M111.03,84.27l-4.44,14.62h1.87l1.03-3.46h5.86l1.03,3.46h1.87l-4.44-14.62h-2.78ZM109.95,93.88l2.37-7.93h.21l2.37,7.93h-4.94Z"/>
      <path d="M130.41,92.51c.52-.68.78-1.81.78-3.4,0-1.22-.12-2.18-.35-2.89-.23-.71-.62-1.21-1.17-1.51-.55-.3-1.3-.44-2.27-.44h-5.66v14.62h1.87v-5.36h3.74l2.53,5.36h2.03l-2.71-5.57c.51-.17.91-.43,1.2-.8ZM123.62,85.81h3.86c.67,0,1.13.07,1.38.21.25.14.37.4.37.77v4.21c0,.37-.12.63-.37.77-.25.14-.71.21-1.38.21h-3.86v-6.17Z"/>
      <path d="M144.12,91.47v-.14c.5-.36.85-.8,1.06-1.33.21-.53.32-1.25.32-2.15,0-1.23-.31-2.14-.94-2.71-.62-.58-1.59-.87-2.9-.87h-5.4v14.62h6.15c1.23,0,2.18-.35,2.83-1.06.65-.71.98-1.73.98-3.05,0-.83-.18-1.52-.54-2.07-.36-.55-.88-.96-1.57-1.23ZM143.2,86.22c.29.38.43,1.07.43,2.07s-.15,1.64-.44,2.01-.83.56-1.59.56h-3.46v-5.22h3.48c.76,0,1.29.19,1.58.57ZM143.89,96.85c-.33.44-.88.66-1.66.66h-4.09v-5.33h4.12c.78,0,1.33.2,1.65.58.32.39.48,1.04.48,1.94,0,1-.16,1.72-.49,2.15Z"/>
      <path d="M154.26,84.27l-4.44,14.62h1.87l1.03-3.46h5.86l1.03,3.46h1.87l-4.44-14.62h-2.78ZM153.18,93.88l2.37-7.93h.21l2.37,7.93h-4.94Z"/>
      <path d="M173.64,92.51c.52-.68.78-1.81.78-3.4,0-1.22-.12-2.18-.35-2.89-.23-.71-.62-1.21-1.17-1.51-.55-.3-1.3-.44-2.27-.44h-5.66v14.62h1.87v-5.36h3.74l2.53,5.36h2.04l-2.71-5.57c.51-.17.91-.43,1.2-.8ZM166.84,85.81h3.86c.67,0,1.13.07,1.38.21.25.14.37.4.37.77v4.21c0,.37-.12.63-.37.77-.25.14-.71.21-1.38.21h-3.86v-6.17Z"/>
      <path d="M186.88,97.53c-.65.11-1.31.16-1.98.16-.55,0-1.07-.03-1.58-.09-.51-.06-.97-.16-1.39-.28v-9.99c0-.8.21-1.29.64-1.5.43-.2,1.1-.3,2.02-.3.26,0,.62.02,1.05.05.44.03.9.07,1.39.13.49.05.94.14,1.34.25l.23-1.57c-.3-.11-.65-.2-1.05-.27-.41-.07-.81-.12-1.22-.15-.41-.03-.76-.05-1.08-.05-1.11,0-2.01.11-2.7.34-.69.23-1.23.62-1.61,1.19-.38.57-.65,1.35-.8,2.34-.15.99-.22,2.26-.22,3.8s.07,2.76.21,3.75c.14.99.4,1.77.77,2.34.37.57.9.97,1.57,1.2.67.23,1.54.35,2.6.35.81,0,1.52-.05,2.13-.14s1.2-.25,1.78-.47l-.21-1.52c-.62.17-1.26.31-1.91.42Z"/>
      <polygon points="202.17 90.89 195.58 90.89 195.58 84.27 193.71 84.27 193.71 98.88 195.58 98.88 195.58 92.43 202.17 92.43 202.17 98.88 204.05 98.88 204.05 84.27 202.17 84.27 202.17 90.89"/>
      <rect x="212.35" y="84.27" width="1.87" height="14.62"/>
      <path d="M88.58,54.91c2.28-.61,4.39-1.56,6.35-2.84,1.96-1.29,3.69-2.98,5.18-5.09.24-.34.46-.71.69-1.07.31.04.64.06.99.06h7.33v-10.05h-5.75c-1.05-2.49-2.38-4.51-3.98-6.07-1.6-1.56-3.59-2.72-5.97-3.48-2.38-.76-5.32-1.14-8.82-1.14-1.31,0-2.7.05-4.17.16-1.48.11-3.03.26-4.68.47l1.33,9.86c1.43-.21,2.78-.34,4.05-.38,1.26-.04,2.44-.06,3.54-.06,2.32,0,4.25.24,5.78.73,1.54.49,2.8,1.25,3.79,2.31.11.12.21.26.32.39-.24.47-.48.94-.76,1.38-.7,1.1-1.55,2.08-2.56,2.94-1.01.86-2.27,1.55-3.76,2.05-1.5.51-3.23.76-5.22.76h-26.61c-1.77,0-3.53-.14-5.28-.41-1.75-.27-3.7-.68-5.85-1.23l-1.33,9.55c2.28.67,4.7,1.19,7.27,1.55,2.57.36,5.02.54,7.33.54h.76v4.74c0,.88-.33,1.57-.98,2.05-.65.48-1.74.82-3.26,1.01-1.52.19-3.6.28-6.26.28h-17.76c-.25-.93-.42-1.92-.51-2.97-.08-1.05-.13-2.26-.13-3.6,0-1.64.18-3.29.54-4.93.36-1.64.81-3.33,1.36-5.06l-8.72-1.45c-.42,1.35-.8,2.76-1.14,4.24-.34,1.48-.58,2.97-.73,4.49-.15,1.52-.22,3.01-.22,4.49,0,2.87.37,5.27,1.11,7.21.74,1.94,1.96,3.46,3.67,4.55,1.71,1.1,4.06,1.87,7.05,2.34,2.99.46,6.74.7,11.25.7s8.54-.25,11.6-.76c3.05-.51,5.47-1.33,7.24-2.47,1.77-1.14,3.01-2.67,3.73-4.58.72-1.92,1.07-4.27,1.07-7.05v-3.22h13.91c2.53,0,4.93-.31,7.21-.92Z"/>
      <path d="M124.11,54.5v-28.38h-8.85v28.38c0,2.23-.17,4.02-.51,5.37-.34,1.35-.95,2.43-1.83,3.26-.88.82-2.15,1.61-3.79,2.37l3.29,7.97c2.82-1.22,5.1-2.66,6.83-4.3,1.73-1.64,2.97-3.66,3.73-6.04.76-2.38,1.14-5.26,1.14-8.63Z"/>
      <polygon points="152.97 45.84 145.89 45.84 143.36 45.84 139.76 45.84 139.76 16 130.84 16 130.84 55.83 143.36 55.83 145.89 55.83 161.88 55.83 161.88 26.12 152.97 26.12 152.97 45.84"/>
      <path d="M169.32,54.5c0,2.23-.17,4.02-.51,5.37-.34,1.35-.95,2.43-1.83,3.26-.89.82-2.15,1.61-3.79,2.37l3.29,7.97c2.82-1.22,5.1-2.66,6.83-4.3,1.73-1.64,2.97-3.66,3.73-6.04.76-2.38,1.14-5.26,1.14-8.63v-28.38h-8.85v28.38Z"/>
      <rect x="184.3" y="16" width="8.91" height="39.83"/>
      <path d="M266.29,35.92c-1.05-2.49-2.38-4.51-3.98-6.07-1.6-1.56-3.59-2.72-5.97-3.48-2.38-.76-5.32-1.14-8.82-1.14-1.31,0-2.7.05-4.17.16-1.48.11-3.03.26-4.68.47l1.33,9.86c1.43-.21,2.78-.34,4.05-.38,1.26-.04,2.44-.06,3.54-.06,2.32,0,4.25.24,5.78.73,1.54.49,2.8,1.25,3.79,2.31.11.12.23.25.34.38-.24.48-.49.94-.78,1.39-.7,1.1-1.55,2.08-2.56,2.94-1.01.86-2.27,1.55-3.76,2.05-1.5.51-3.24.76-5.22.76h-15.42v-18.21c-2.19-.88-4.42-1.51-6.67-1.86-2.25-.36-4.94-.54-8.06-.54-2.78,0-5.17.28-7.17.85-2,.57-3.61,1.44-4.84,2.62-1.22,1.18-2.14,2.72-2.75,4.61-.61,1.9-.92,4.17-.92,6.83,0,2.82.25,5.24.76,7.24.51,2,1.25,3.63,2.24,4.87.99,1.24,2.31,2.15,3.95,2.72,1.64.57,3.58.85,5.82.85h6.23c-.17.37-.35.74-.54,1.11-.97,1.87-2.13,3.67-3.48,5.37-1.35,1.71-2.82,3.23-4.43,4.58l5.94,6.57c2.06-1.81,3.94-3.82,5.63-6.04,1.69-2.21,3.15-4.52,4.39-6.92.8-1.54,1.47-3.1,2.04-4.68h16.39c2.53,0,4.93-.31,7.21-.92,2.28-.61,4.39-1.56,6.35-2.84,1.96-1.29,3.69-2.98,5.18-5.09.24-.34.48-.7.7-1.07.31.04.63.05.97.05h7.33v-10.05h-5.75ZM220.83,43.25c0,.97-.19,1.64-.57,2.02-.38.38-1.05.57-2.02.57h-9.42v-7.9c0-1.05.25-1.76.76-2.12.51-.36,1.43-.54,2.78-.54h8.47v7.97Z"/>
      <polygon points="85.52 68.6 98 68.6 98 59.91 76.82 59.91 76.82 61.49 76.82 68.6 76.82 73.91 85.52 73.91 85.52 68.6"/>
      <rect x="142.02" y="61.47" width="8.7" height="8.7"/>
      <rect x="229.14" y="16" width="8.7" height="8.7"/>
      <rect x="220.56" y="90.58" width="29.66" height="2"/>
      <rect x="41.05" y="90.58" width="29.66" height="2"/>
    </g>
  </g>
</svg>